<svg aria-hidden="true" style="position: absolute; width: 0; height: 0; overflow: hidden;" version="1.1" xmlns="http://www.w3.org/2000/svg" xmlns:xlink="http://www.w3.org/1999/xlink">
<defs>
<symbol id="icon-whatsapp" viewBox="0 0 31 32">
<path d="M8.233 27.204c1.279 0.826 2.638 1.386 4.023 1.759 1.412 0.373 2.904 0.506 4.37 0.426 3.863-0.24 7.274-1.998 9.672-4.689s3.757-6.288 3.544-10.152v-0.027c-0.24-3.863-1.998-7.247-4.663-9.619-2.691-2.398-6.288-3.757-10.152-3.544h-0.027c-3.837 0.24-7.247 1.998-9.619 4.689s-3.837 6.261-3.597 10.152v0.027c0.080 1.332 0.32 2.584 0.746 3.757 0.426 1.226 1.013 2.371 1.759 3.437 0.133 0.186 0.16 0.426 0.080 0.613l-2.478 6.022 5.729-2.878c0.186-0.107 0.453-0.080 0.613 0.027zM18.678 23.554c-1.998-0.107-4.716-1.998-6.874-4.343-2.185-2.345-3.863-5.196-3.837-7.194-0.027-0.426 0.053-0.879 0.16-1.386 0.133-0.48 0.293-0.986 0.56-1.492 0.080-0.187 0.187-0.373 0.266-0.56 0.080-0.16 0.187-0.346 0.32-0.533 0.080-0.133 0.187-0.213 0.32-0.266 0.746-0.373 1.332-0.533 1.892-0.453 0.586 0.080 1.092 0.426 1.625 1.092 0.266 0.32 0.506 0.666 0.746 1.092 0.24 0.373 0.426 0.799 0.639 1.252 0.213 0.373 0.24 0.826 0.080 1.306-0.133 0.4-0.373 0.826-0.719 1.252-0.107 0.133-0.24 0.187-0.373 0.213-0.080 0.027-0.133 0.053-0.16 0.080-0.080 0.053-0.133 0.16-0.187 0.32 0 0.027-0.027 0.053-0.027 0.053-0.027 0.027 0.053 0.027 0.133 0.187 0.266 0.586 0.906 1.439 1.652 2.238 0.719 0.799 1.545 1.492 2.105 1.812 0.133 0.080 0.133 0.16 0.16 0.133s0.053-0.027 0.053-0.027c0.16-0.053 0.266-0.107 0.32-0.16s0.080-0.107 0.107-0.186 0.133-0.266 0.24-0.32v0c0.453-0.32 0.879-0.533 1.279-0.639 0.48-0.107 0.906-0.053 1.252 0.186 0.453 0.24 0.853 0.48 1.226 0.719 0.373 0.266 0.719 0.533 1.012 0.826 0.613 0.586 0.933 1.092 0.959 1.705 0.027 0.56-0.186 1.119-0.613 1.838-0.080 0.133-0.16 0.213-0.266 0.266v0c-0.186 0.080-0.373 0.186-0.56 0.266s-0.373 0.16-0.56 0.24c-0.533 0.213-1.039 0.346-1.519 0.426-0.533 0.080-1.012 0.080-1.412 0.053zM12.763 18.305c1.972 2.132 4.343 3.837 5.995 3.917h0.027c0.293 0.027 0.639 0.027 1.039-0.053s0.826-0.186 1.279-0.346c0.16-0.080 0.32-0.133 0.48-0.213 0.107-0.053 0.213-0.080 0.32-0.16 0.24-0.4 0.32-0.693 0.32-0.906-0.027-0.24-0.186-0.48-0.56-0.853-0.24-0.24-0.533-0.453-0.853-0.693s-0.693-0.453-1.092-0.639v0c-0.027 0-0.053-0.027-0.080-0.027-0.053-0.027-0.16-0.027-0.266 0-0.186 0.027-0.4 0.133-0.639 0.293-0.107 0.213-0.24 0.4-0.4 0.533-0.213 0.186-0.48 0.32-0.799 0.426-0.346 0.133-0.773 0.053-1.226-0.186-0.719-0.373-1.652-1.199-2.478-2.078s-1.545-1.892-1.892-2.611c-0.213-0.48-0.266-0.933-0.080-1.279 0.133-0.32 0.266-0.56 0.48-0.746 0.187-0.16 0.373-0.266 0.586-0.373 0.187-0.24 0.293-0.453 0.346-0.639 0.053-0.133 0.053-0.24 0.027-0.293-0.027-0.027-0.027-0.053-0.027-0.080-0.187-0.426-0.373-0.799-0.56-1.146-0.213-0.32-0.426-0.639-0.639-0.906-0.32-0.4-0.586-0.586-0.799-0.639-0.24-0.027-0.533 0.053-0.959 0.266-0.053 0.107-0.107 0.213-0.187 0.32-0.080 0.187-0.187 0.32-0.24 0.48-0.213 0.453-0.373 0.879-0.453 1.279-0.107 0.373-0.133 0.719-0.133 1.039v0.027c-0.080 1.625 1.465 4.157 3.464 6.288zM11.937 30.188c-1.386-0.373-2.744-0.933-4.077-1.732l-6.901 3.464c-0.16 0.080-0.373 0.107-0.56 0.027-0.32-0.133-0.48-0.506-0.346-0.826l2.984-7.301c-0.719-1.092-1.306-2.238-1.732-3.464-0.453-1.279-0.719-2.638-0.799-4.103 0-0.027 0-0.053 0-0.080-0.24-4.21 1.252-8.1 3.863-11.031 2.611-2.904 6.288-4.849 10.498-5.116 0.027 0 0.053 0 0.080 0v0c4.21-0.24 8.127 1.252 11.031 3.863 2.904 2.585 4.849 6.288 5.116 10.498 0 0.027 0 0.053 0 0.080v0c0.24 4.21-1.252 8.1-3.863 11.031s-6.341 4.849-10.551 5.116c-1.599 0.133-3.197 0-4.743-0.426z"></path>
</symbol>
<symbol id="icon-telegram" viewBox="0 0 32 32">
<path d="M28.581 4.346c-0.261-0.226-0.603-0.364-0.978-0.364-0.198 0-0.387 0.038-0.559 0.108l0.010-0.004-23.070 9.063c-0.562 0.225-0.951 0.765-0.951 1.396 0 0.724 0.513 1.329 1.196 1.469l0.010 0.002 6.262 1.252v7.729c-0 0.005-0 0.010-0 0.016 0 0.617 0.379 1.146 0.916 1.367l0.010 0.004c0.172 0.074 0.373 0.117 0.583 0.118h0c0.412-0.001 0.784-0.171 1.051-0.443l3.575-3.575 5.274 4.641c0.261 0.233 0.607 0.375 0.986 0.375h0c0.166-0 0.326-0.027 0.476-0.077l-0.011 0.003c0.503-0.163 0.882-0.573 1-1.082l0.002-0.010 4.702-20.517c0.024-0.101 0.038-0.217 0.038-0.336 0-0.453-0.201-0.859-0.52-1.134l-0.002-0.002zM4.034 14.59c-0.002-0.017-0.003-0.036-0.003-0.055 0-0.208 0.131-0.385 0.315-0.453l0.003-0.001 21.147-8.308-14.613 10.553-6.45-1.29c-0.219-0.039-0.386-0.221-0.4-0.445l-0-0.001zM12.354 25.352c-0.090 0.090-0.215 0.146-0.354 0.146-0.276 0-0.5-0.224-0.5-0.5v0-7.033l4.383 3.857zM28.089 5.594l-4.702 20.517c-0.053 0.224-0.251 0.388-0.487 0.388-0.127 0-0.243-0.047-0.331-0.125l0.001 0-10.769-9.477 16.208-11.706c0.059 0.079 0.095 0.178 0.095 0.286 0 0.041-0.005 0.082-0.015 0.12l0.001-0.003z"></path>
</symbol>
<symbol id="icon-phone" viewBox="0 0 32 32">
<path d="M31.282 25.289l-4.942-4.942c-0.984-0.98-2.614-0.95-3.633 0.068l-2.489 2.489c-0.157-0.087-0.32-0.178-0.491-0.274-1.572-0.871-3.724-2.065-5.989-4.331-2.271-2.271-3.466-4.426-4.34-5.999-0.093-0.167-0.181-0.327-0.268-0.48l2.492-2.491c1.020-1.020 1.049-2.65 0.066-3.633l-4.942-4.943c-0.982-0.982-2.613-0.952-3.633 0.068l-1.393 1.401 0.038 0.038c-0.467 0.596-0.858 1.283-1.148 2.024-0.268 0.705-0.435 1.379-0.511 2.053-0.652 5.41 1.82 10.354 8.528 17.063 9.274 9.273 16.747 8.573 17.069 8.538 0.703-0.084 1.375-0.252 2.059-0.517 0.735-0.287 1.422-0.677 2.017-1.142l0.030 0.027 1.411-1.382c1.018-1.020 1.048-2.65 0.066-3.635zM30.119 27.826l-0.622 0.621-0.248 0.238c-0.39 0.377-1.065 0.907-2.051 1.292-0.56 0.215-1.111 0.354-1.673 0.421-0.071 0.007-7.1 0.607-15.8-8.093-7.397-7.397-8.583-11.659-8.086-15.788 0.062-0.547 0.2-1.098 0.419-1.673 0.389-0.991 0.918-1.666 1.292-2.057l0.86-0.868c0.414-0.415 1.061-0.447 1.439-0.068l4.942 4.942c0.378 0.379 0.348 1.025-0.067 1.442l-3.337 3.334 0.308 0.518c0.171 0.289 0.352 0.613 0.546 0.964 0.918 1.656 2.174 3.922 4.6 6.345 2.419 2.421 4.682 3.676 6.333 4.591 0.357 0.197 0.682 0.379 0.975 0.553l0.52 0.308 3.335-3.336c0.416-0.414 1.064-0.445 1.443-0.067l4.939 4.941c0.378 0.379 0.348 1.025-0.067 1.44z"></path>
</symbol>
<symbol id="icon-logo" viewBox="0 0 32 32">
<path d="M19.561 31.602c7.123-1.619 12.439-7.99 12.439-15.602 0-8.837-7.163-16-16-16s-16 7.163-16 16c0 6.080 3.391 11.367 8.385 14.075 0.077-3.985 1.417-8.711 5.281-13.516l-3.698-2.687h4.705l1.454-4.475 1.454 4.475h4.705l-3.807 2.766 1.454 4.475-3.78-2.747c0.355 4.004 1.331 8.967 3.407 13.237z"></path>
</symbol>
</defs>
</svg>
